#!OML:ASF F:\VICON\USERDATA\INSTALL\Justin_Nancy\Justin_Nancy.ASF
:FULLY-SPECIFIED
:DEGREES
95
root 12.1671 17.704 -12.0528 -2.07372 3.19218 -1.97024
lowerback 7.13577 -0.715713 -0.613117
upperback 0.292241 -0.876706 3.29035
thorax -3.6408 -0.399033 3.84866
lowerneck -15.7707 -3.74878 -9.34937
upperneck 24.6794 -4.30112 5.77284
head 10.9047 -2.15116 3.06302
rclavicle -1.98785e-015 4.77083e-014
rhumerus -32.0281 -15.2701 -77.8394
rradius 25.2723
rwrist 12.6731
rhand -14.7835 14.4444
rfingers 7.12502
rthumb 11.3736 -15.2271
lclavicle -1.98785e-015 4.77083e-014
lhumerus -28.6514 14.2405 84.2765
lradius 22.1352
lwrist -16.9718
lhand -12.5824 28.6772
lfingers 7.12502
lthumb 13.4957 58.2199
rfemur -7.01947 1.45685 28.4928
rtibia 17.992
rfoot -4.45232 -5.34925
rtoes 0.965907
lfemur -14.6356 4.35615 -16.9589
ltibia 65.2169
lfoot 3.355 -4.50213
ltoes -17.3557
96
root 12.173 17.7144 -11.9182 -2.08265 2.97008 -2.16974
lowerback 7.01092 -0.607318 -0.319977
upperback 0.393214 -0.713442 3.27093
thorax -3.48133 -0.325524 3.64161
lowerneck -15.6987 -4.14727 -9.73949
upperneck 25.1412 -4.80608 5.8457
head 11.1239 -2.41514 3.08976
rclavicle 6.31141e-015 -3.97569e-015
rhumerus -31.3985 -14.966 -78.2133
rradius 25.299
rwrist 11.6226
rhand -15.2917 14.534
rfingers 7.12502
rthumb 10.8834 -15.164
lclavicle 6.31141e-015 -3.97569e-015
lhumerus -28.9827 14.2009 84.2796
lradius 22.4194
lwrist -16.5025
lhand -12.6887 28.6233
lfingers 7.12502
lthumb 13.3933 58.1728
rfemur -6.53985 1.61569 28.7767
rtibia 18.0884
rfoot -4.87926 -5.4016
rtoes 0.641339
lfemur -15.7136 4.64547 -16.7377
ltibia 65.6268
lfoot 2.56684 -3.14114
ltoes -17.0418
97
root 12.1782 17.7147 -11.792 -1.99125 2.71847 -2.23431
lowerback 7.03755 -0.482955 -0.151951
upperback 0.366811 -0.535271 3.21184
thorax -3.53729 -0.239126 3.46806
lowerneck -15.6934 -4.36622 -10.0419
upperneck 25.2233 -5.09812 6.05939
head 11.197 -2.55194 3.17775
rclavicle 8.12532e-015 -3.65764e-014
rhumerus -30.8661 -14.7441 -78.524
rradius 25.5477
rwrist 11.0485
rhand -15.1707 14.057
rfingers 7.12502
rthumb 11.0001 -15.6348
lclavicle 8.12532e-015 -3.65764e-014
lhumerus -29.4435 13.5989 84.5404
lradius 23.0542
lwrist -14.8847
lhand -12.3502 30.7256
lfingers 7.12502
lthumb 13.7195 60.2534
rfemur -6.19174 1.88118 28.8914
rtibia 18.1883
rfoot -5.41025 -5.49743
rtoes 3.00279
lfemur -16.9296 4.90804 -16.6817
ltibia 65.9157
lfoot 2.21608 -1.75035
ltoes -14.478
98
root 12.1858 17.702 -11.6722 -1.91863 2.38527 -2.29753
lowerback 7.23547 -0.335758 0.0351473
upperback 0.25238 -0.321054 3.11261
thorax -3.78162 -0.133416 3.24153
lowerneck -15.723 -4.43334 -9.93534
upperneck 25.3667 -5.248 6.1317
head 11.2695 -2.60188 3.16631
rclavicle 1.51076e-014 -1.51076e-014
rhumerus -30.5907 -14.3021 -78.9043
rradius 25.9404
rwrist 10.2709
rhand -15.0171 13.6461
rfingers 7.12502
rthumb 11.1483 -16.0377
lclavicle 1.51076e-014 -1.51076e-014
lhumerus -29.7797 13.5653 84.3849
lradius 23.1518
lwrist -14.1681
lhand -11.9302 31.6234
lfingers 7.12502
lthumb 14.1243 61.1234
rfemur -5.87094 2.22681 28.9822
rtibia 18.3252
rfoot -6.27406 -5.6023
rtoes 7.62163
lfemur -18.1665 5.17418 -16.6594
ltibia 66.0924
lfoot 2.01212 -0.602855
ltoes -6.25994
99
root 12.1943 17.6964 -11.5445 -1.96509 2.16951 -2.22888
lowerback 7.37718 -0.230963 0.0879489
upperback 0.209468 -0.178363 2.98412
thorax -3.91411 -0.0632415 3.06493
lowerneck -15.609 -4.2655 -9.59082
upperneck 25.2224 -5.09741 6.08883
head 11.1645 -2.50615 3.11382
rclavicle -6.43565e-015 1.19271e-014
rhumerus -30.2402 -14.0545 -79.1713
rradius 26.1749
rwrist 9.90065
rhand -14.8652 13.053
rfingers 7.12502
rthumb 11.2948 -16.6229
lclavicle -6.43565e-015 1.19271e-014
lhumerus -30.1918 13.3108 84.3223
lradius 23.1713
lwrist -12.76
lhand -13.3818 29.8966
lfingers 7.12502
lthumb 12.7251 59.4889
rfemur -5.49608 2.20693 28.9606
rtibia 18.6335
rfoot -6.48715 -5.53166
rtoes 5.0319
lfemur -19.1527 5.16997 -16.7958
ltibia 66.076
lfoot 1.36533 0.283703
ltoes -3.82145
100
root 12.1984 17.6894 -11.4157 -1.9593 2.03334 -2.23124
lowerback 7.45073 -0.140779 0.110286
upperback 0.181018 -0.0554455 2.95257
thorax -3.99145 -0.00212636 3.00735
lowerneck -15.7191 -3.91282 -9.08827
upperneck 24.727 -4.64735 5.89658
head 10.9379 -2.27035 3.01517
rclavicle 1.68967e-015 2.8625e-014
rhumerus -29.7884 -13.9564 -79.2814
rradius 26.3743
rwrist 9.79364
rhand -14.6274 12.4906
rfingers 7.12502
rthumb 11.5241 -17.1726
lclavicle 1.68967e-015 2.8625e-014
lhumerus -30.6522 12.9794 84.4852
lradius 23.2717
lwrist -10.9824
lhand -15.2837 27.6609
lfingers 7.12502
lthumb 10.8911 57.3585
rfemur -5.14862 2.15993 29.0425
rtibia 18.8969
rfoot -6.72714 -5.61941
rtoes 2.42297
lfemur -20.13 5.11454 -16.8227
ltibia 65.8672
lfoot 0.189188 0.869602
ltoes -4.13629
101
root 12.2019 17.6765 -11.2849 -2.01497 1.77238 -2.46805
lowerback 7.46007 -0.0157703 0.370364
upperback 0.283478 0.131327 2.96511
thorax -3.89931 0.084672 2.85245
lowerneck -14.9902 -4.44623 -9.79991
upperneck 25.0244 -5.34078 6.05326
head 10.9978 -2.64972 3.10344
rclavicle 3.60297e-015 1.43125e-014
rhumerus -29.2583 -13.5931 -79.5714
rradius 26.8548
rwrist 9.27146
rhand -14.2087 11.8767
rfingers 7.12502
rthumb 11.9278 -17.7635
lclavicle 3.60297e-015 1.43125e-014
lhumerus -30.7501 13.0029 84.4839
lradius 23.2655
lwrist -11.0847
lhand -14.9951 27.2243
lfingers 7.12502
lthumb 11.1694 56.9071
rfemur -4.72275 2.48148 29.3615
rtibia 19.2395
rfoot -7.36054 -5.8263
rtoes 3.87739
lfemur -21.1208 5.13509 -16.5594
ltibia 65.5433
lfoot -1.13905 1.21821
ltoes -5.72228
102
root 12.2071 17.6668 -11.1513 -1.99157 1.76546 -2.7331
lowerback 7.46408 -0.0248101 0.732939
upperback 0.283639 0.14993 2.95608
thorax -3.90131 0.0872417 2.63628
lowerneck -15.2951 -4.54115 -10.0162
upperneck 25.0828 -5.47663 6.36829
head 11.109 -2.68986 3.23358
rclavicle 1.68967e-015 -7.95139e-016
rhumerus -28.7962 -12.9964 -79.9526
rradius 27.3234
rwrist 8.67623
rhand -13.564 11.3919
rfingers 7.12502
rthumb 12.5494 -18.2112
lclavicle 1.68967e-015 -7.95139e-016
lhumerus -30.9536 12.9937 84.3564
lradius 23.3329
lwrist -11.4795
lhand -14.111 27.0954
lfingers 7.12502
lthumb 12.0221 56.7301
rfemur -4.41095 2.82225 29.6729
rtibia 19.6916
rfoot -8.18156 -6.16551
rtoes 6.93876
lfemur -22.391 4.8937 -16.3261
ltibia 65.0127
lfoot -2.03768 1.71601
ltoes -6.94447
103
root 12.215 17.6344 -11.0282 -1.81329 1.8258 -2.83187
lowerback 7.36277 -0.00256757 0.882494
upperback 0.20906 0.191369 2.94295
thorax -3.92305 0.105352 2.53374
lowerneck -15.4126 -4.59618 -10.1856
upperneck 25.2573 -5.54873 6.52774
head 11.2158 -2.719 3.31242
rclavicle 2.78299e-015 2.78299e-015
rhumerus -28.4704 -12.4634 -80.1992
rradius 27.911
rwrist 7.88481
rhand -12.8809 11.3302
rfingers 7.12502
rthumb 13.208 -18.2314
lclavicle 2.78299e-015 2.78299e-015
lhumerus -31.2322 12.3175 84.6196
lradius 23.7011
lwrist -9.80777
lhand -13.6267 28.3735
lfingers 7.12502
lthumb 12.489 57.9803
rfemur -4.32609 2.95769 29.7885
rtibia 20.127
rfoot -8.96012 -6.34237
rtoes 9.06419
lfemur -23.3574 4.61604 -16.2032
ltibia 64.487
lfoot -3.47214 2.03974
ltoes -5.8866
104
root 12.2289 17.612 -10.9021 -1.64948 1.6557 -2.68981
lowerback 7.16002 0.116181 0.826531
upperback 0.245086 0.334783 2.85236
thorax -3.77684 0.176212 2.45473
lowerneck -15.345 -4.48541 -10.0511
upperneck 25.1382 -5.40164 6.43609
head 11.1353 -2.65009 3.27646
rclavicle 4.79568e-015 1.98785e-015
rhumerus -28.1459 -11.8323 -80.4838
rradius 28.2952
rwrist 7.88542
rhand -13.7477 12.2306
rfingers 7.12502
rthumb 12.3723 -17.3833
lclavicle 4.79568e-015 1.98785e-015
lhumerus -31.4874 11.6736 84.9964
lradius 23.9346
lwrist -7.85573
lhand -15.3431 27.0917
lfingers 7.12502
lthumb 10.8338 56.7923
rfemur -4.227 2.83503 29.6509
rtibia 20.4982
rfoot -9.495 -6.42097
rtoes 6.98292
lfemur -24.3374 4.49795 -16.4286
ltibia 63.699
lfoot -5.09391 2.34
ltoes -8.86386
105
root 12.2469 17.596 -10.7672 -1.67439 1.3303 -2.60628
lowerback 7.08245 0.261972 0.914358
upperback 0.38487 0.526069 2.75399
thorax -3.59354 0.267986 2.28258
lowerneck -15.3705 -4.42112 -9.87985
upperneck 24.8237 -5.30031 6.29832
head 11.0028 -2.60062 3.2057
rclavicle -4.37326e-015 1.98785e-015
rhumerus -27.733 -11.2825 -80.7734
rradius 28.899
rwrist 7.45072
rhand -14.0672 12.2507
rfingers 7.12502
rthumb 12.0643 -17.3815
lclavicle -4.37326e-015 1.98785e-015
lhumerus -31.6987 12.3809 84.59
lradius 24.5495
lwrist -11.3685
lhand -12.4169 30.1426
lfingers 7.12502
lthumb 13.6552 59.6747
rfemur -3.90425 2.73341 29.5916
rtibia 20.9148
rfoot -10.0089 -6.48331
rtoes 2.8635
lfemur -24.9615 4.35426 -16.5834
ltibia 62.719
lfoot -3.50492 4.0312
ltoes -0.00717399
106
root 12.2639 17.5709 -10.6281 -1.72608 1.0911 -2.88431
lowerback 7.12712 0.359057 1.3219
upperback 0.425153 0.688992 2.77752
thorax -3.57788 0.342374 2.06082
lowerneck -15.5307 -4.48016 -9.90458
upperneck 24.8419 -5.34067 6.22314
head 11.0442 -2.62735 3.17442
rclavicle 8.57259e-015 -1.59028e-014
rhumerus -27.5125 -10.4746 -81.0185
rradius 29.5927
rwrist 6.90157
rhand -13.906 11.953
rfingers 7.12502
rthumb 12.2198 -17.67
lclavicle 8.57259e-015 -1.59028e-014
lhumerus -31.8426 12.3259 84.6125
lradius 24.3837
lwrist -10.9447
lhand -13.7464 27.5872
lfingers 7.12502
lthumb 12.3736 57.201
rfemur -3.3829 2.78095 29.9313
rtibia 21.0597
rfoot -10.5019 -6.65669
rtoes 0.856821
lfemur -25.5382 4.3034 -16.261
ltibia 61.6547
lfoot -7.17729 3.68392
ltoes -8.8147
107
root 12.2762 17.5515 -10.4979 -1.68028 0.962247 -3.08396
lowerback 7.18341 0.40936 1.62228
upperback 0.360254 0.783075 2.74668
thorax -3.67484 0.383832 1.8501
lowerneck -15.553 -4.48099 -9.90305
upperneck 24.9635 -5.35248 6.24929
head 11.0959 -2.63011 3.18395
rclavicle 1.04362e-014 -9.93923e-015
rhumerus -27.4107 -9.7298 -81.3189
rradius 30.1771
rwrist 6.51827
rhand -13.9503 12.0474
rfingers 7.12502
rthumb 12.177 -17.5782
lclavicle 1.04362e-014 -9.93923e-015
lhumerus -32.1043 12.2747 84.5342
lradius 24.2043
lwrist -10.4016
lhand -14.9405 26.4985
lfingers 7.12502
lthumb 11.2221 56.1783
rfemur -2.89336 2.9091 30.1693
rtibia 21.0053
rfoot -10.9346 -6.78924
rtoes 1.00442
lfemur -26.2573 4.07509 -16.0231
ltibia 60.4429
lfoot -5.57197 5.31148
ltoes -0.596254
108
root 12.2845 17.5459 -10.3769 -1.61732 0.968167 -3.19348
lowerback 7.25812 0.467966 1.77314
upperback 0.326925 0.877166 2.74295
thorax -3.75103 0.427756 1.75136
lowerneck -15.3842 -4.48759 -9.9114
upperneck 24.781 -5.38434 6.30803
head 10.9992 -2.63966 3.20124
rclavicle 6.95746e-016 -8.34896e-015
rhumerus -26.9822 -9.33076 -81.4472
rradius 30.4282
rwrist 6.27342
rhand -14.246 12.3201
rfingers 7.12502
rthumb 11.8919 -17.3221
lclavicle 6.95746e-016 -8.34896e-015
lhumerus -32.3527 11.8545 84.7441
lradius 24.4426
lwrist -9.67246
lhand -15.575 27.2592
lfingers 7.12502
lthumb 10.6101 56.9714
rfemur -2.42924 2.94931 30.3016
rtibia 20.8991
rfoot -11.2368 -6.96519
rtoes 1.23665
lfemur -26.8664 3.63313 -15.8773
ltibia 59.0783
lfoot -5.52817 6.02508
ltoes 1.01198
109
root 12.2918 17.5397 -10.2504 -1.62665 0.980682 -3.23017
lowerback 7.35555 0.504639 1.77487
upperback 0.387331 0.929214 2.78371
thorax -3.74467 0.453918 1.7867
lowerneck -15.372 -4.52529 -9.9582
upperneck 24.5427 -5.40283 6.26362
head 10.9105 -2.65567 3.18603
rclavicle -2.04003e-014 -9.14409e-015
rhumerus -26.6771 -8.48406 -81.6298
rradius 31.2964
rwrist 5.62908
rhand -14.4682 11.8646
rfingers 7.12502
rthumb 11.6777 -17.7899
lclavicle -2.04003e-014 -9.14409e-015
lhumerus -32.4542 12.1402 84.7154
lradius 25.0289
lwrist -11.2484
lhand -12.6889 30.7904
lfingers 7.12502
lthumb 13.3931 60.3399
rfemur -1.88025 2.96369 30.3877
rtibia 20.8182
rfoot -11.617 -7.19462
rtoes 0.81524
lfemur -27.288 3.18698 -15.7917
ltibia 57.5093
lfoot -6.39716 5.74556
ltoes 0.460947
